HIERARCHY
ROOT Hip
{
	OFFSET	0.0000	0.0000	0.0000
	CHANNELS 6 Xposition Yposition Zposition Xrotation Yrotation Zrotation
	JOINT LowerSpine
	{
		OFFSET	0.0000	8.3453	-5.1292
		CHANNELS 3 Xrotation Yrotation Zrotation
		JOINT MiddleSpine
		{
			OFFSET	10.8569	0.0000	0.0000
			CHANNELS 3 Xrotation Yrotation Zrotation
			JOINT Chest
			{
				OFFSET	15.2984	0.0000	0.0000
				CHANNELS 3 Xrotation Yrotation Zrotation
				JOINT Neck
				{
					OFFSET	25.6618	-0.5986	0.0000
					CHANNELS 3 Xrotation Yrotation Zrotation
					JOINT Head
					{
						OFFSET	8.8829	0.0000	0.0000
						CHANNELS 3 Xrotation Yrotation Zrotation
						End Site
						{
							OFFSET	19.7399	0.0000	0.0000
						}
					}
				}
				JOINT RClavicle
				{
					OFFSET	23.6878	0.0000	3.1584
					CHANNELS 3 Xrotation Yrotation Zrotation
					JOINT RShoulder
					{
						OFFSET	-15.5945	-3.9480	0.9870
						CHANNELS 3 Xrotation Yrotation Zrotation
						JOINT RForearm
						{
							OFFSET	-31.3370	0.0000	0.1974
							CHANNELS 3 Xrotation Yrotation Zrotation
							JOINT RHand
							{
								OFFSET	-26.4021	0.0000	0.0000
								CHANNELS 3 Xrotation Yrotation Zrotation
								End Site
								{
									OFFSET	-15.7919	-0.9870	0.0000
								}
							}
						}
					}
				}
				JOINT LClavicle
				{
					OFFSET	23.6878	0.0000	-3.1584
					CHANNELS 3 Xrotation Yrotation Zrotation
					JOINT LShoulder
					{
						OFFSET	-15.5945	-3.9480	-0.9870
						CHANNELS 3 Xrotation Yrotation Zrotation
						JOINT LForearm
						{
							OFFSET	-31.3370	0.0000	-0.1974
							CHANNELS 3 Xrotation Yrotation Zrotation
							JOINT LHand
							{
								OFFSET	-26.4021	0.0000	0.0000
								CHANNELS 3 Xrotation Yrotation Zrotation
								End Site
								{
									OFFSET	-15.7919	-0.9870	0.0000
								}
							}
						}
					}
				}
			}
		}
	}
	JOINT RThigh
	{
		OFFSET	-8.8829	0.4481	0.0000
		CHANNELS 3 Xrotation Yrotation Zrotation
		JOINT RShin
		{
			OFFSET	43.1316	0.0000	-0.4935
			CHANNELS 3 Xrotation Yrotation Zrotation
			JOINT RFoot
			{
				OFFSET	0.0000	-44.7256	-0.4047
				CHANNELS 3 Xrotation Yrotation Zrotation
				JOINT RToe
				{
					OFFSET	0.0000	-3.9332	12.1953
					CHANNELS 3 Xrotation Yrotation Zrotation
					End Site
					{
						OFFSET	6.7725	0.0000	0.0000
					}
				}
			}
		}
	}
	JOINT LThigh
	{
		OFFSET	8.8829	0.4481	0.0000
		CHANNELS 3 Xrotation Yrotation Zrotation
		JOINT LShin
		{
			OFFSET	43.1316	0.0000	0.4935
			CHANNELS 3 Xrotation Yrotation Zrotation
			JOINT LFoot
			{
				OFFSET	0.0000	-44.7256	0.4047
				CHANNELS 3 Xrotation Yrotation Zrotation
				JOINT LToe
				{
					OFFSET	0.0000	-3.9332	-12.1953
					CHANNELS 3 Xrotation Yrotation Zrotation
					End Site
					{
						OFFSET	6.7725	0.0000	0.0000
					}
				}
			}
		}
	}
}
MOTION
Frames:	14
Frame Time: 0.0169491000
	14.9758	92.9135	-11.7666	0.017993	11.894700	0.328238	-89.999990	-90.000000	0.000000	-0.440440	0.439522	0.289090	-1.476493	1.456958	0.975932	0.000000	0.000000	0.000000	0.000000	0.000000	0.000000	89.998720	-0.028092	-89.622210	-53.773280	66.290120	-15.022880	11.650070	63.540390	-13.252220	0.000000	0.000000	0.000000	-89.995350	0.163097	-87.808100	56.351260	-22.071510	1.990580	-1.782164	-19.102970	-6.205430	0.000000	0.000000	0.000000	-31.370840	75.732410	-65.645470	89.721950	29.084270	90.041710	-4.134124	-3.322999	-1.277439	166.285300	90.000000	0.000000	-119.735000	85.756390	19.814170	-89.827300	-18.863290	90.009250	2.701284	-0.968569	0.333086	185.756800	-90.000000	0.000000
	15.0471	92.9403	-11.7234	-0.160790	12.247060	0.310208	-89.999990	-90.000000	0.000000	-0.382348	0.383594	0.267073	-1.281481	1.271735	0.900143	0.000000	0.000000	0.000000	0.000000	0.000000	0.000000	89.998720	-0.028196	-89.620840	-51.351120	66.001900	-17.284250	16.100620	69.967700	-17.348230	0.000000	0.000000	0.000000	-89.995160	0.201968	-87.286010	54.942570	-19.915730	4.248518	-1.736803	-18.707820	-6.190733	0.000000	0.000000	0.000000	-27.208480	73.983320	-68.463180	89.741810	27.270110	90.034180	-4.150948	-2.481686	-0.921924	165.713800	90.000000	0.000000	-119.328500	85.683370	18.668100	-89.811380	-20.496200	90.012940	2.307273	-1.777716	0.614929	186.908600	-90.000000	0.000000
	15.1779	92.9467	-11.7241	-0.291349	12.402250	0.402969	-89.999990	-90.000000	0.000000	-0.330914	0.309791	0.232576	-1.107965	1.027403	0.782210	0.000000	0.000000	0.000000	0.000000	0.000000	0.000000	89.999000	-0.021381	-89.712440	-49.559040	66.264990	-18.812180	23.882920	75.905590	-24.798910	0.000000	0.000000	0.000000	-89.995520	0.259630	-86.511520	53.362390	-17.538270	6.323632	-1.711429	-18.485970	-6.182641	0.000000	0.000000	0.000000	-24.882330	72.952800	-70.165890	89.750090	26.498450	90.031230	-3.772892	-1.874686	-0.653725	164.472300	90.000000	0.000000	-120.235500	85.776840	19.032900	-89.799550	-21.690540	90.015980	2.098542	-2.280870	0.784892	187.543200	-90.000000	0.000000
	15.3016	92.9480	-11.7183	-0.427688	12.281890	0.500705	-89.999990	-90.000000	0.000000	-0.288206	0.223838	0.192937	-0.963631	0.742380	0.647466	0.000000	0.000000	0.000000	0.000000	0.000000	0.000000	89.999530	-0.009682	-89.869740	-49.245180	66.858690	-18.443610	37.815790	80.546390	-38.452530	0.000000	0.000000	0.000000	-89.996970	0.328034	-85.592520	51.803720	-15.209940	7.855469	-1.707618	-18.452590	-6.181433	0.000000	0.000000	0.000000	-24.680500	73.023030	-70.070320	89.753560	26.172190	90.030020	-3.682291	-1.979401	-0.687120	164.126800	90.000000	0.000000	-121.478100	85.857870	20.094510	-89.793270	-22.316950	90.017690	2.068344	-2.484377	0.845940	187.720200	-90.000000	0.000000
	15.3496	92.9128	-11.7349	-0.543855	12.025540	0.581915	-89.999990	-90.000000	0.000000	-0.254230	0.141726	0.158440	-0.842324	0.463458	0.530102	0.000000	0.000000	0.000000	0.000000	0.000000	0.000000	90.000210	0.004708	-90.063190	-50.011010	67.517470	-16.513210	56.947750	83.035950	-57.396420	0.000000	0.000000	0.000000	-89.999560	0.397404	-84.660100	50.503480	-13.627130	8.950033	-1.629503	-17.765710	-6.157152	0.000000	0.000000	0.000000	-26.410930	74.080090	-68.967600	89.741230	27.324370	90.034390	-3.819229	-2.955240	-1.046146	164.591200	90.000000	0.000000	-123.335700	85.839730	21.796890	-89.787770	-22.863310	90.019250	2.093801	-2.713310	0.909950	187.901600	-90.000000	0.000000
	15.4163	92.8024	-11.8710	-0.481271	11.560910	0.786595	-89.999990	-90.000000	0.000000	-0.231510	0.084778	0.137018	-0.732807	0.252544	0.459706	0.000000	0.000000	0.000000	0.000000	0.000000	0.000000	90.000920	0.018989	-90.255280	-51.065390	68.442150	-14.432500	69.157250	83.740700	-69.525560	0.000000	0.000000	0.000000	-90.002850	0.459649	-83.822920	49.486050	-12.777970	9.336682	-1.475386	-16.394990	-6.111882	0.000000	0.000000	0.000000	-29.034230	75.816340	-68.559780	89.702650	30.793960	90.049590	-3.671408	-3.833169	-1.333537	164.667300	90.000000	0.000000	-126.362300	86.045680	24.430660	-89.781320	-23.496370	90.021140	2.140460	-2.300224	0.758842	188.274100	-90.000000	0.000000
	15.6019	92.6504	-12.0843	-0.224152	10.675530	1.175318	-89.999990	-90.000000	0.000000	-0.188109	0.033515	0.128797	-0.627910	0.158624	0.451177	0.000000	0.000000	0.000000	0.000000	0.000000	0.000000	90.001550	0.030689	-90.412670	-50.559020	69.398860	-14.749360	71.571560	83.832120	-71.925680	0.000000	0.000000	0.000000	-90.006180	0.510126	-83.143410	47.981190	-12.215220	8.721111	-1.398266	-15.701620	-6.090561	0.000000	0.000000	0.000000	-29.483350	77.281780	-70.914650	89.652500	34.982100	90.072560	-3.300912	-3.679025	-1.248244	164.338700	90.000000	0.000000	-130.229200	86.631000	27.954040	-89.778000	-23.821370	90.022150	2.368793	-0.979660	0.305283	188.434400	-90.000000	0.000000
	15.8766	92.4769	-12.2618	0.075113	9.389015	1.687228	-89.999990	-90.000000	0.000000	-0.146947	0.061399	0.155003	-0.528345	0.192424	0.502535	0.000000	0.000000	0.000000	0.000000	0.000000	0.000000	90.001970	0.038232	-90.514070	-46.079190	69.543810	-20.151490	74.982500	83.938930	-75.317220	0.000000	0.000000	0.000000	-90.009040	0.547447	-82.640690	45.236890	-11.654470	7.328959	-1.466056	-16.311370	-6.109255	0.000000	0.000000	0.000000	-26.948950	78.055280	-75.770790	89.608440	38.361680	90.095440	-2.756097	-3.018162	-1.012134	163.423300	90.000000	0.000000	-135.980900	87.325080	33.624470	-89.778120	-23.809330	90.022110	2.942665	0.382142	-0.181741	188.108600	-90.000000	0.000000
	16.2091	92.2538	-12.3957	0.297023	7.988428	2.322780	-89.999990	-90.000000	0.000000	-0.130175	0.098096	0.179219	-0.439871	0.322285	0.599574	0.000000	0.000000	0.000000	0.000000	0.000000	0.000000	90.002130	0.041069	-90.552280	-40.388250	68.982770	-27.529300	77.669430	84.005870	-77.989310	0.000000	0.000000	0.000000	-90.011130	0.572420	-82.304010	43.294240	-11.029150	5.954267	-1.599812	-17.503230	-6.148156	0.000000	0.000000	0.000000	-22.327090	78.460730	-82.499370	89.565790	41.373960	90.119710	-1.691504	-2.087267	-0.678233	161.297500	90.000000	0.000000	-148.880100	88.008400	46.502460	-89.776990	-23.921030	90.022460	3.644660	1.897177	-0.798319	187.751400	-90.000000	0.000000
	16.5104	92.0347	-12.5156	0.396345	6.973302	2.981600	-89.999990	-90.000000	0.000000	-0.110333	0.148931	0.214990	-0.368138	0.495211	0.722964	0.000000	0.000000	0.000000	0.000000	0.000000	0.000000	90.002080	0.040191	-90.540560	-39.257700	68.988660	-30.323110	65.639180	83.581990	-66.028960	0.000000	0.000000	0.000000	-90.012430	0.587051	-82.106750	44.269120	-10.796490	5.132962	-1.722060	-18.578990	-6.186018	0.000000	0.000000	0.000000	-15.800310	78.484540	-91.340320	89.516400	44.559300	90.150120	-0.096667	-0.584033	-0.166108	158.904000	90.000000	0.000000	-174.952400	88.484700	72.439900	-89.772810	-24.325240	90.023760	4.151650	3.529514	-1.512506	187.643300	-90.000000	0.000000
	16.6770	91.9171	-12.5841	0.370662	6.515462	3.535006	-89.999990	-90.000000	0.000000	-0.094251	0.200708	0.254981	-0.316624	0.667829	0.853984	0.000000	0.000000	0.000000	0.000000	0.000000	0.000000	90.001980	0.038608	-90.519190	-42.769560	69.243440	-27.985900	44.355950	81.682110	-44.914670	0.000000	0.000000	0.000000	-90.012980	0.593039	-82.025990	46.213740	-11.752300	4.627573	-1.760497	-18.914460	-6.198371	0.000000	0.000000	0.000000	-9.047565	78.102200	-100.387600	89.462910	47.671070	90.185520	1.568626	0.924331	0.330975	157.935000	90.000000	0.000000	156.266700	88.533200	101.142200	-89.769260	-24.668220	90.024890	4.405331	4.145621	-1.819047	187.494700	-90.000000	0.000000
	16.7452	91.9159	-12.5829	0.264562	6.291882	3.975638	-89.999990	-90.000000	0.000000	-0.084943	0.247684	0.293097	-0.288142	0.824807	0.977934	0.000000	0.000000	0.000000	0.000000	0.000000	0.000000	90.002090	0.040326	-90.542320	-46.431450	68.105740	-24.897580	29.744530	78.395400	-30.515330	0.000000	0.000000	0.000000	-90.012830	0.591420	-82.047810	47.161410	-14.194770	4.063213	-1.676030	-18.175490	-6.171505	0.000000	0.000000	0.000000	-3.089875	77.614390	-108.336800	89.405690	50.645080	90.225770	2.465606	1.571920	0.563350	160.078500	90.000000	0.000000	137.974900	88.392520	119.689300	-89.771310	-24.470720	90.024230	4.591310	3.682839	-1.677222	186.821500	-90.000000	0.000000
	16.7419	92.0024	-12.5654	0.168870	6.114373	4.198306	-89.999990	-90.000000	0.000000	-0.083590	0.292022	0.325676	-0.285494	0.973669	1.086172	0.000000	0.000000	0.000000	0.000000	0.000000	0.000000	90.002470	0.046899	-90.630750	-48.686320	65.387020	-22.549700	21.449800	74.483760	-22.446370	0.000000	0.000000	0.000000	-90.012090	0.583402	-82.155950	47.774670	-17.703850	3.187352	-1.550329	-17.064070	-6.133454	0.000000	0.000000	0.000000	2.171826	77.064740	-115.459700	89.337880	53.754370	90.276190	1.955582	1.115272	0.450520	166.448200	90.000000	0.000000	130.971900	88.343830	127.227900	-89.779640	-23.660620	90.021660	4.762512	2.894841	-1.353853	185.623300	-90.000000	0.000000
	16.6663	92.1467	-12.5688	0.174132	5.968311	4.196805	-89.999990	-90.000000	0.000000	-0.090069	0.336932	0.351921	-0.308269	1.124649	1.177287	0.000000	0.000000	0.000000	0.000000	0.000000	0.000000	90.003140	0.058147	-90.782110	-51.050350	62.065540	-19.515410	16.097060	69.963820	-17.344890	0.000000	0.000000	0.000000	-90.010890	0.569641	-82.341480	48.474320	-21.447940	1.883032	-1.537549	-16.950310	-6.129717	0.000000	0.000000	0.000000	6.869887	76.364400	-122.181100	89.251820	57.144430	90.343640	0.770799	0.242282	0.180150	174.280700	90.000000	0.000000	132.353100	88.411200	126.425300	-89.791230	-22.519750	90.018280	4.590014	2.366135	-1.097507	184.903600	-90.000000	0.000000
